<mxfile host="app.diagrams.net" modified="2021-12-30T06:30:40.822Z" agent="5.0 (Windows NT 10.0; Win64; x64) AppleWebKit/537.36 (KHTML, like Gecko) Chrome/96.0.4664.45 Safari/537.36" etag="Mi0ff-MG7B0hp12zj3jL" version="16.1.0" type="github">
  <diagram name="Page-1" id="9361dd3d-8414-5efd-6122-117bd74ce7a7">
    <mxGraphModel dx="2062" dy="1122" grid="1" gridSize="10" guides="1" tooltips="1" connect="1" arrows="1" fold="1" page="0" pageScale="1.5" pageWidth="826" pageHeight="1169" background="none" math="0" shadow="0">
      <root>
        <mxCell id="0" />
        <mxCell id="1" parent="0" />
        <mxCell id="2" value="" style="fillColor=#CC4125;strokeColor=#660000" parent="1" vertex="1">
          <mxGeometry x="200" y="150" width="10" height="130" as="geometry" />
        </mxCell>
        <mxCell id="6" value="" style="fillColor=#CC4125;strokeColor=#660000" parent="1" vertex="1">
          <mxGeometry x="342.5" y="180" width="10" height="80" as="geometry" />
        </mxCell>
        <mxCell id="7" value="适配器" style="shadow=1;fillColor=#A2C4C9;strokeColor=none" parent="1" vertex="1">
          <mxGeometry x="295" y="100" width="105" height="50" as="geometry" />
        </mxCell>
        <mxCell id="8" value="" style="edgeStyle=none;endArrow=none;dashed=1" parent="1" source="7" target="6" edge="1">
          <mxGeometry x="272.3350694444445" y="165" width="100" height="100" as="geometry">
            <mxPoint x="347.2588734567901" y="110" as="sourcePoint" />
            <mxPoint x="347.5761959876544" y="165" as="targetPoint" />
          </mxGeometry>
        </mxCell>
        <mxCell id="9" value="读取数据" style="edgeStyle=none;verticalLabelPosition=top;verticalAlign=bottom" parent="1" edge="1">
          <mxGeometry x="220" y="92" width="100" height="100" as="geometry">
            <mxPoint x="210" y="179.5" as="sourcePoint" />
            <mxPoint x="340" y="179.5" as="targetPoint" />
          </mxGeometry>
        </mxCell>
        <mxCell id="33" value="" style="edgeStyle=elbowEdgeStyle;elbow=horizontal;endArrow=none;dashed=1" parent="1" target="2" edge="1">
          <mxGeometry x="230.00000000000003" y="310" width="100" height="100" as="geometry">
            <mxPoint x="205" y="110" as="sourcePoint" />
            <mxPoint x="330" y="310" as="targetPoint" />
          </mxGeometry>
        </mxCell>
        <mxCell id="71" value="线下数据库" style="rounded=1;fontStyle=1;fillColor=#FFD966;strokeColor=none" parent="1" vertex="1">
          <mxGeometry x="60" y="100" width="150" height="30" as="geometry" />
        </mxCell>
        <object label="return" 返回="111" id="fWdeBwMi8OIrrzwi172w-89">
          <mxCell style="html=1;verticalAlign=bottom;endArrow=open;dashed=1;endSize=8;rounded=0;shadow=0;entryX=1;entryY=0.75;entryDx=0;entryDy=0;" edge="1" parent="1" target="2">
            <mxGeometry relative="1" as="geometry">
              <mxPoint x="340" y="248" as="sourcePoint" />
              <mxPoint x="790" y="500" as="targetPoint" />
              <Array as="points">
                <mxPoint x="280" y="250" />
              </Array>
            </mxGeometry>
          </mxCell>
        </object>
        <mxCell id="fWdeBwMi8OIrrzwi172w-91" value="" style="html=1;points=[];perimeter=orthogonalPerimeter;fillColor=#dae8fc;strokeColor=#6c8ebf;" vertex="1" parent="1">
          <mxGeometry x="530" y="180" width="10" height="60" as="geometry" />
        </mxCell>
        <mxCell id="fWdeBwMi8OIrrzwi172w-92" value="callback" style="html=1;verticalAlign=bottom;endArrow=block;entryX=1;entryY=0;rounded=0;shadow=0;exitX=1;exitY=0;exitDx=0;exitDy=0;fillColor=#dae8fc;strokeColor=#6c8ebf;" edge="1" target="fWdeBwMi8OIrrzwi172w-91" parent="1" source="6">
          <mxGeometry relative="1" as="geometry">
            <mxPoint x="600" y="185" as="sourcePoint" />
          </mxGeometry>
        </mxCell>
        <mxCell id="fWdeBwMi8OIrrzwi172w-93" value="return" style="html=1;verticalAlign=bottom;endArrow=open;dashed=1;endSize=8;exitX=1;exitY=0.95;rounded=0;shadow=0;entryX=1;entryY=0.75;entryDx=0;entryDy=0;" edge="1" source="fWdeBwMi8OIrrzwi172w-91" parent="1" target="6">
          <mxGeometry relative="1" as="geometry">
            <mxPoint x="600" y="242" as="targetPoint" />
          </mxGeometry>
        </mxCell>
      </root>
    </mxGraphModel>
  </diagram>
</mxfile>
